<?xml version="1.0" encoding="utf-8" ?>
<svg baseProfile="full" height="100mm" version="1.1" width="100mm" xmlns="http://www.w3.org/2000/svg" xmlns:ev="http://www.w3.org/2001/xml-events" xmlns:xlink="http://www.w3.org/1999/xlink"><defs /><circle cx="50mm" cy="50mm" fill="#0066CC" r="35mm" stroke="#003366" stroke-width="2mm" /><circle cx="50mm" cy="25mm" fill="#FFFFFF" r="5mm" /><circle cx="50mm" cy="75mm" fill="#FFFFFF" r="5mm" /><line stroke="#FFFFFF" stroke-width="3mm" x1="50mm" x2="50mm" y1="30mm" y2="70mm" /><text fill="#FFFFFF" font-family="monospace" font-size="8pt" font-weight="bold" text-anchor="middle" x="50mm" y="55mm">GX-0001</text><text fill="#003366" font-family="sans-serif" font-size="6pt" opacity="0.5" text-anchor="middle" x="50mm" y="90mm">SCIC</text><rect fill="#000000" height="2mm" id="ir_cell_1" opacity="0.05" width="2mm" x="12mm" y="10mm" /><rect fill="#000000" height="2mm" id="ir_cell_7" opacity="0.05" width="2mm" x="24mm" y="10mm" /><rect fill="#000000" height="2mm" id="ir_cell_10" opacity="0.05" width="2mm" x="30mm" y="10mm" /><rect fill="#000000" height="2mm" id="ir_cell_11" opacity="0.05" width="2mm" x="32mm" y="10mm" /><rect fill="#000000" height="2mm" id="ir_cell_12" opacity="0.05" width="2mm" x="34mm" y="10mm" /><rect fill="#000000" height="2mm" id="ir_cell_14" opacity="0.05" width="2mm" x="38mm" y="10mm" /><rect fill="#000000" height="2mm" id="ir_cell_17" opacity="0.05" width="2mm" x="44mm" y="10mm" /><rect fill="#000000" height="2mm" id="ir_cell_20" opacity="0.05" width="2mm" x="50mm" y="10mm" /><rect fill="#000000" height="2mm" id="ir_cell_23" opacity="0.05" width="2mm" x="56mm" y="10mm" /><rect fill="#000000" height="2mm" id="ir_cell_25" opacity="0.05" width="2mm" x="60mm" y="10mm" /><rect fill="#000000" height="2mm" id="ir_cell_29" opacity="0.05" width="2mm" x="68mm" y="10mm" /><rect fill="#000000" height="2mm" id="ir_cell_34" opacity="0.05" width="2mm" x="78mm" y="10mm" /><rect fill="#000000" height="2mm" id="ir_cell_36" opacity="0.05" width="2mm" x="82mm" y="10mm" /><rect fill="#000000" height="2mm" id="ir_cell_37" opacity="0.05" width="2mm" x="84mm" y="10mm" /><rect fill="#000000" height="2mm" id="ir_cell_39" opacity="0.05" width="2mm" x="88mm" y="10mm" /><rect fill="#000000" height="2mm" id="ir_cell_42" opacity="0.05" width="2mm" x="14mm" y="12mm" /><rect fill="#000000" height="2mm" id="ir_cell_43" opacity="0.05" width="2mm" x="16mm" y="12mm" /><rect fill="#000000" height="2mm" id="ir_cell_47" opacity="0.05" width="2mm" x="24mm" y="12mm" /><rect fill="#000000" height="2mm" id="ir_cell_50" opacity="0.05" width="2mm" x="30mm" y="12mm" /><rect fill="#000000" height="2mm" id="ir_cell_51" opacity="0.05" width="2mm" x="32mm" y="12mm" /><rect fill="#000000" height="2mm" id="ir_cell_54" opacity="0.05" width="2mm" x="38mm" y="12mm" /><rect fill="#000000" height="2mm" id="ir_cell_58" opacity="0.05" width="2mm" x="46mm" y="12mm" /><rect fill="#000000" height="2mm" id="ir_cell_59" opacity="0.05" width="2mm" x="48mm" y="12mm" /><rect fill="#000000" height="2mm" id="ir_cell_62" opacity="0.05" width="2mm" x="54mm" y="12mm" /><rect fill="#000000" height="2mm" id="ir_cell_63" opacity="0.05" width="2mm" x="56mm" y="12mm" /><rect fill="#000000" height="2mm" id="ir_cell_66" opacity="0.05" width="2mm" x="62mm" y="12mm" /><rect fill="#000000" height="2mm" id="ir_cell_67" opacity="0.05" width="2mm" x="64mm" y="12mm" /><rect fill="#000000" height="2mm" id="ir_cell_69" opacity="0.05" width="2mm" x="68mm" y="12mm" /><rect fill="#000000" height="2mm" id="ir_cell_74" opacity="0.05" width="2mm" x="78mm" y="12mm" /><rect fill="#000000" height="2mm" id="ir_cell_75" opacity="0.05" width="2mm" x="80mm" y="12mm" /><rect fill="#000000" height="2mm" id="ir_cell_77" opacity="0.05" width="2mm" x="84mm" y="12mm" /><rect fill="#000000" height="2mm" id="ir_cell_79" opacity="0.05" width="2mm" x="88mm" y="12mm" /><rect fill="#000000" height="2mm" id="ir_cell_81" opacity="0.05" width="2mm" x="12mm" y="14mm" /><rect fill="#000000" height="2mm" id="ir_cell_82" opacity="0.05" width="2mm" x="14mm" y="14mm" /><rect fill="#000000" height="2mm" id="ir_cell_83" opacity="0.05" width="2mm" x="16mm" y="14mm" /><rect fill="#000000" height="2mm" id="ir_cell_84" opacity="0.05" width="2mm" x="18mm" y="14mm" /><rect fill="#000000" height="2mm" id="ir_cell_85" opacity="0.05" width="2mm" x="20mm" y="14mm" /><rect fill="#000000" height="2mm" id="ir_cell_89" opacity="0.05" width="2mm" x="28mm" y="14mm" /><rect fill="#000000" height="2mm" id="ir_cell_94" opacity="0.05" width="2mm" x="38mm" y="14mm" /><rect fill="#000000" height="2mm" id="ir_cell_98" opacity="0.05" width="2mm" x="46mm" y="14mm" /><rect fill="#000000" height="2mm" id="ir_cell_99" opacity="0.05" width="2mm" x="48mm" y="14mm" /><rect fill="#000000" height="2mm" id="ir_cell_100" opacity="0.05" width="2mm" x="50mm" y="14mm" /><rect fill="#000000" height="2mm" id="ir_cell_102" opacity="0.05" width="2mm" x="54mm" y="14mm" /><rect fill="#000000" height="2mm" id="ir_cell_105" opacity="0.05" width="2mm" x="60mm" y="14mm" /><rect fill="#000000" height="2mm" id="ir_cell_111" opacity="0.05" width="2mm" x="72mm" y="14mm" /><rect fill="#000000" height="2mm" id="ir_cell_113" opacity="0.05" width="2mm" x="76mm" y="14mm" /><rect fill="#000000" height="2mm" id="ir_cell_115" opacity="0.05" width="2mm" x="80mm" y="14mm" /><rect fill="#000000" height="2mm" id="ir_cell_117" opacity="0.05" width="2mm" x="84mm" y="14mm" /><rect fill="#000000" height="2mm" id="ir_cell_119" opacity="0.05" width="2mm" x="88mm" y="14mm" /><rect fill="#000000" height="2mm" id="ir_cell_121" opacity="0.05" width="2mm" x="12mm" y="16mm" /><rect fill="#000000" height="2mm" id="ir_cell_123" opacity="0.05" width="2mm" x="16mm" y="16mm" /><rect fill="#000000" height="2mm" id="ir_cell_125" opacity="0.05" width="2mm" x="20mm" y="16mm" /><rect fill="#000000" height="2mm" id="ir_cell_129" opacity="0.05" width="2mm" x="28mm" y="16mm" /><rect fill="#000000" height="2mm" id="ir_cell_132" opacity="0.05" width="2mm" x="34mm" y="16mm" /><rect fill="#000000" height="2mm" id="ir_cell_138" opacity="0.05" width="2mm" x="46mm" y="16mm" /><rect fill="#000000" height="2mm" id="ir_cell_140" opacity="0.05" width="2mm" x="50mm" y="16mm" /><rect fill="#000000" height="2mm" id="ir_cell_141" opacity="0.05" width="2mm" x="52mm" y="16mm" /><rect fill="#000000" height="2mm" id="ir_cell_143" opacity="0.05" width="2mm" x="56mm" y="16mm" /><rect fill="#000000" height="2mm" id="ir_cell_145" opacity="0.05" width="2mm" x="60mm" y="16mm" /><rect fill="#000000" height="2mm" id="ir_cell_148" opacity="0.05" width="2mm" x="66mm" y="16mm" /><rect fill="#000000" height="2mm" id="ir_cell_149" opacity="0.05" width="2mm" x="68mm" y="16mm" /><rect fill="#000000" height="2mm" id="ir_cell_153" opacity="0.05" width="2mm" x="76mm" y="16mm" /><rect fill="#000000" height="2mm" id="ir_cell_157" opacity="0.05" width="2mm" x="84mm" y="16mm" /><rect fill="#000000" height="2mm" id="ir_cell_159" opacity="0.05" width="2mm" x="88mm" y="16mm" /><rect fill="#000000" height="2mm" id="ir_cell_161" opacity="0.05" width="2mm" x="12mm" y="18mm" /><rect fill="#000000" height="2mm" id="ir_cell_163" opacity="0.05" width="2mm" x="16mm" y="18mm" /><rect fill="#000000" height="2mm" id="ir_cell_165" opacity="0.05" width="2mm" x="20mm" y="18mm" /><rect fill="#000000" height="2mm" id="ir_cell_166" opacity="0.05" width="2mm" x="22mm" y="18mm" /><rect fill="#000000" height="2mm" id="ir_cell_169" opacity="0.05" width="2mm" x="28mm" y="18mm" /><rect fill="#000000" height="2mm" id="ir_cell_173" opacity="0.05" width="2mm" x="36mm" y="18mm" /><rect fill="#000000" height="2mm" id="ir_cell_175" opacity="0.05" width="2mm" x="40mm" y="18mm" /><rect fill="#000000" height="2mm" id="ir_cell_177" opacity="0.05" width="2mm" x="44mm" y="18mm" /><rect fill="#000000" height="2mm" id="ir_cell_180" opacity="0.05" width="2mm" x="50mm" y="18mm" /><rect fill="#000000" height="2mm" id="ir_cell_181" opacity="0.05" width="2mm" x="52mm" y="18mm" /><rect fill="#000000" height="2mm" id="ir_cell_186" opacity="0.05" width="2mm" x="62mm" y="18mm" /><rect fill="#000000" height="2mm" id="ir_cell_188" opacity="0.05" width="2mm" x="66mm" y="18mm" /><rect fill="#000000" height="2mm" id="ir_cell_189" opacity="0.05" width="2mm" x="68mm" y="18mm" /><rect fill="#000000" height="2mm" id="ir_cell_191" opacity="0.05" width="2mm" x="72mm" y="18mm" /><rect fill="#000000" height="2mm" id="ir_cell_194" opacity="0.05" width="2mm" x="78mm" y="18mm" /><rect fill="#000000" height="2mm" id="ir_cell_195" opacity="0.05" width="2mm" x="80mm" y="18mm" /><rect fill="#000000" height="2mm" id="ir_cell_197" opacity="0.05" width="2mm" x="84mm" y="18mm" /><rect fill="#000000" height="2mm" id="ir_cell_199" opacity="0.05" width="2mm" x="88mm" y="18mm" /><rect fill="#000000" height="2mm" id="ir_cell_201" opacity="0.05" width="2mm" x="12mm" y="20mm" /><rect fill="#000000" height="2mm" id="ir_cell_202" opacity="0.05" width="2mm" x="14mm" y="20mm" /><rect fill="#000000" height="2mm" id="ir_cell_203" opacity="0.05" width="2mm" x="16mm" y="20mm" /><rect fill="#000000" height="2mm" id="ir_cell_204" opacity="0.05" width="2mm" x="18mm" y="20mm" /><rect fill="#000000" height="2mm" id="ir_cell_205" opacity="0.05" width="2mm" x="20mm" y="20mm" /><rect fill="#000000" height="2mm" id="ir_cell_209" opacity="0.05" width="2mm" x="28mm" y="20mm" /><rect fill="#000000" height="2mm" id="ir_cell_214" opacity="0.05" width="2mm" x="38mm" y="20mm" /><rect fill="#000000" height="2mm" id="ir_cell_215" opacity="0.05" width="2mm" x="40mm" y="20mm" /><rect fill="#000000" height="2mm" id="ir_cell_218" opacity="0.05" width="2mm" x="46mm" y="20mm" /><rect fill="#000000" height="2mm" id="ir_cell_219" opacity="0.05" width="2mm" x="48mm" y="20mm" /><rect fill="#000000" height="2mm" id="ir_cell_220" opacity="0.05" width="2mm" x="50mm" y="20mm" /><rect fill="#000000" height="2mm" id="ir_cell_222" opacity="0.05" width="2mm" x="54mm" y="20mm" /><rect fill="#000000" height="2mm" id="ir_cell_225" opacity="0.05" width="2mm" x="60mm" y="20mm" /><rect fill="#000000" height="2mm" id="ir_cell_228" opacity="0.05" width="2mm" x="66mm" y="20mm" /><rect fill="#000000" height="2mm" id="ir_cell_229" opacity="0.05" width="2mm" x="68mm" y="20mm" /><rect fill="#000000" height="2mm" id="ir_cell_233" opacity="0.05" width="2mm" x="76mm" y="20mm" /><rect fill="#000000" height="2mm" id="ir_cell_236" opacity="0.05" width="2mm" x="82mm" y="20mm" /><rect fill="#000000" height="2mm" id="ir_cell_237" opacity="0.05" width="2mm" x="84mm" y="20mm" /><rect fill="#000000" height="2mm" id="ir_cell_238" opacity="0.05" width="2mm" x="86mm" y="20mm" /><rect fill="#000000" height="2mm" id="ir_cell_239" opacity="0.05" width="2mm" x="88mm" y="20mm" /><rect fill="#000000" height="2mm" id="ir_cell_241" opacity="0.05" width="2mm" x="12mm" y="22mm" /><rect fill="#000000" height="2mm" id="ir_cell_245" opacity="0.05" width="2mm" x="20mm" y="22mm" /><rect fill="#000000" height="2mm" id="ir_cell_246" opacity="0.05" width="2mm" x="22mm" y="22mm" /><rect fill="#000000" height="2mm" id="ir_cell_247" opacity="0.05" width="2mm" x="24mm" y="22mm" /><rect fill="#000000" height="2mm" id="ir_cell_250" opacity="0.05" width="2mm" x="30mm" y="22mm" /><rect fill="#000000" height="2mm" id="ir_cell_252" opacity="0.05" width="2mm" x="34mm" y="22mm" /><rect fill="#000000" height="2mm" id="ir_cell_253" opacity="0.05" width="2mm" x="36mm" y="22mm" /><rect fill="#000000" height="2mm" id="ir_cell_255" opacity="0.05" width="2mm" x="40mm" y="22mm" /><rect fill="#000000" height="2mm" id="ir_cell_258" opacity="0.05" width="2mm" x="46mm" y="22mm" /><rect fill="#000000" height="2mm" id="ir_cell_259" opacity="0.05" width="2mm" x="48mm" y="22mm" /><rect fill="#000000" height="2mm" id="ir_cell_262" opacity="0.05" width="2mm" x="54mm" y="22mm" /><rect fill="#000000" height="2mm" id="ir_cell_266" opacity="0.05" width="2mm" x="62mm" y="22mm" /><rect fill="#000000" height="2mm" id="ir_cell_267" opacity="0.05" width="2mm" x="64mm" y="22mm" /><rect fill="#000000" height="2mm" id="ir_cell_274" opacity="0.05" width="2mm" x="78mm" y="22mm" /><rect fill="#000000" height="2mm" id="ir_cell_275" opacity="0.05" width="2mm" x="80mm" y="22mm" /><rect fill="#000000" height="2mm" id="ir_cell_278" opacity="0.05" width="2mm" x="86mm" y="22mm" /><rect fill="#000000" height="2mm" id="ir_cell_282" opacity="0.05" width="2mm" x="14mm" y="24mm" /><rect fill="#000000" height="2mm" id="ir_cell_283" opacity="0.05" width="2mm" x="16mm" y="24mm" /><rect fill="#000000" height="2mm" id="ir_cell_285" opacity="0.05" width="2mm" x="20mm" y="24mm" /><rect fill="#000000" height="2mm" id="ir_cell_287" opacity="0.05" width="2mm" x="24mm" y="24mm" /><rect fill="#000000" height="2mm" id="ir_cell_290" opacity="0.05" width="2mm" x="30mm" y="24mm" /><rect fill="#000000" height="2mm" id="ir_cell_292" opacity="0.05" width="2mm" x="34mm" y="24mm" /><rect fill="#000000" height="2mm" id="ir_cell_293" opacity="0.05" width="2mm" x="36mm" y="24mm" /><rect fill="#000000" height="2mm" id="ir_cell_295" opacity="0.05" width="2mm" x="40mm" y="24mm" /><rect fill="#000000" height="2mm" id="ir_cell_298" opacity="0.05" width="2mm" x="46mm" y="24mm" /><rect fill="#000000" height="2mm" id="ir_cell_299" opacity="0.05" width="2mm" x="48mm" y="24mm" /><rect fill="#000000" height="2mm" id="ir_cell_303" opacity="0.05" width="2mm" x="56mm" y="24mm" /><rect fill="#000000" height="2mm" id="ir_cell_306" opacity="0.05" width="2mm" x="62mm" y="24mm" /><rect fill="#000000" height="2mm" id="ir_cell_307" opacity="0.05" width="2mm" x="64mm" y="24mm" /><rect fill="#000000" height="2mm" id="ir_cell_311" opacity="0.05" width="2mm" x="72mm" y="24mm" /><rect fill="#000000" height="2mm" id="ir_cell_314" opacity="0.05" width="2mm" x="78mm" y="24mm" /><rect fill="#000000" height="2mm" id="ir_cell_316" opacity="0.05" width="2mm" x="82mm" y="24mm" /><rect fill="#000000" height="2mm" id="ir_cell_317" opacity="0.05" width="2mm" x="84mm" y="24mm" /><rect fill="#000000" height="2mm" id="ir_cell_319" opacity="0.05" width="2mm" x="88mm" y="24mm" /><rect fill="#000000" height="2mm" id="ir_cell_322" opacity="0.05" width="2mm" x="14mm" y="26mm" /><rect fill="#000000" height="2mm" id="ir_cell_323" opacity="0.05" width="2mm" x="16mm" y="26mm" /><rect fill="#000000" height="2mm" id="ir_cell_326" opacity="0.05" width="2mm" x="22mm" y="26mm" /><rect fill="#000000" height="2mm" id="ir_cell_330" opacity="0.05" width="2mm" x="30mm" y="26mm" /><rect fill="#000000" height="2mm" id="ir_cell_331" opacity="0.05" width="2mm" x="32mm" y="26mm" /><rect fill="#000000" height="2mm" id="ir_cell_333" opacity="0.05" width="2mm" x="36mm" y="26mm" /><rect fill="#000000" height="2mm" id="ir_cell_334" opacity="0.05" width="2mm" x="38mm" y="26mm" /><text fill="#999999" font-size="3pt" opacity="0.3" x="5mm" y="98mm">IR: 336 bits</text></svg>