<?xml version="1.0" encoding="utf-8" ?>
<svg baseProfile="full" height="100mm" version="1.1" width="100mm" xmlns="http://www.w3.org/2000/svg" xmlns:ev="http://www.w3.org/2001/xml-events" xmlns:xlink="http://www.w3.org/1999/xlink"><defs /><circle cx="50mm" cy="50mm" fill="#0066CC" r="35mm" stroke="#003366" stroke-width="2mm" /><circle cx="50mm" cy="25mm" fill="#FFFFFF" r="5mm" /><circle cx="50mm" cy="75mm" fill="#FFFFFF" r="5mm" /><line stroke="#FFFFFF" stroke-width="3mm" x1="50mm" x2="50mm" y1="30mm" y2="70mm" /><text fill="#FFFFFF" font-family="monospace" font-size="8pt" font-weight="bold" text-anchor="middle" x="50mm" y="55mm">GX-P-042</text><text fill="#003366" font-family="sans-serif" font-size="6pt" opacity="0.5" text-anchor="middle" x="50mm" y="90mm">SCIC</text><rect fill="#000000" height="2mm" id="ir_cell_1" opacity="0.05" width="2mm" x="12mm" y="10mm" /><rect fill="#000000" height="2mm" id="ir_cell_7" opacity="0.05" width="2mm" x="24mm" y="10mm" /><rect fill="#000000" height="2mm" id="ir_cell_10" opacity="0.05" width="2mm" x="30mm" y="10mm" /><rect fill="#000000" height="2mm" id="ir_cell_11" opacity="0.05" width="2mm" x="32mm" y="10mm" /><rect fill="#000000" height="2mm" id="ir_cell_12" opacity="0.05" width="2mm" x="34mm" y="10mm" /><rect fill="#000000" height="2mm" id="ir_cell_14" opacity="0.05" width="2mm" x="38mm" y="10mm" /><rect fill="#000000" height="2mm" id="ir_cell_17" opacity="0.05" width="2mm" x="44mm" y="10mm" /><rect fill="#000000" height="2mm" id="ir_cell_21" opacity="0.05" width="2mm" x="52mm" y="10mm" /><rect fill="#000000" height="2mm" id="ir_cell_23" opacity="0.05" width="2mm" x="56mm" y="10mm" /><rect fill="#000000" height="2mm" id="ir_cell_25" opacity="0.05" width="2mm" x="60mm" y="10mm" /><rect fill="#000000" height="2mm" id="ir_cell_28" opacity="0.05" width="2mm" x="66mm" y="10mm" /><rect fill="#000000" height="2mm" id="ir_cell_29" opacity="0.05" width="2mm" x="68mm" y="10mm" /><rect fill="#000000" height="2mm" id="ir_cell_31" opacity="0.05" width="2mm" x="72mm" y="10mm" /><rect fill="#000000" height="2mm" id="ir_cell_33" opacity="0.05" width="2mm" x="76mm" y="10mm" /><rect fill="#000000" height="2mm" id="ir_cell_35" opacity="0.05" width="2mm" x="80mm" y="10mm" /><rect fill="#000000" height="2mm" id="ir_cell_42" opacity="0.05" width="2mm" x="14mm" y="12mm" /><rect fill="#000000" height="2mm" id="ir_cell_44" opacity="0.05" width="2mm" x="18mm" y="12mm" /><rect fill="#000000" height="2mm" id="ir_cell_45" opacity="0.05" width="2mm" x="20mm" y="12mm" /><rect fill="#000000" height="2mm" id="ir_cell_47" opacity="0.05" width="2mm" x="24mm" y="12mm" /><rect fill="#000000" height="2mm" id="ir_cell_49" opacity="0.05" width="2mm" x="28mm" y="12mm" /><rect fill="#000000" height="2mm" id="ir_cell_52" opacity="0.05" width="2mm" x="34mm" y="12mm" /><rect fill="#000000" height="2mm" id="ir_cell_54" opacity="0.05" width="2mm" x="38mm" y="12mm" /><rect fill="#000000" height="2mm" id="ir_cell_57" opacity="0.05" width="2mm" x="44mm" y="12mm" /><rect fill="#000000" height="2mm" id="ir_cell_60" opacity="0.05" width="2mm" x="50mm" y="12mm" /><rect fill="#000000" height="2mm" id="ir_cell_61" opacity="0.05" width="2mm" x="52mm" y="12mm" /><rect fill="#000000" height="2mm" id="ir_cell_62" opacity="0.05" width="2mm" x="54mm" y="12mm" /><rect fill="#000000" height="2mm" id="ir_cell_63" opacity="0.05" width="2mm" x="56mm" y="12mm" /><rect fill="#000000" height="2mm" id="ir_cell_65" opacity="0.05" width="2mm" x="60mm" y="12mm" /><rect fill="#000000" height="2mm" id="ir_cell_68" opacity="0.05" width="2mm" x="66mm" y="12mm" /><rect fill="#000000" height="2mm" id="ir_cell_73" opacity="0.05" width="2mm" x="76mm" y="12mm" /><rect fill="#000000" height="2mm" id="ir_cell_76" opacity="0.05" width="2mm" x="82mm" y="12mm" /><rect fill="#000000" height="2mm" id="ir_cell_77" opacity="0.05" width="2mm" x="84mm" y="12mm" /><rect fill="#000000" height="2mm" id="ir_cell_78" opacity="0.05" width="2mm" x="86mm" y="12mm" /><rect fill="#000000" height="2mm" id="ir_cell_82" opacity="0.05" width="2mm" x="14mm" y="14mm" /><rect fill="#000000" height="2mm" id="ir_cell_84" opacity="0.05" width="2mm" x="18mm" y="14mm" /><rect fill="#000000" height="2mm" id="ir_cell_85" opacity="0.05" width="2mm" x="20mm" y="14mm" /><rect fill="#000000" height="2mm" id="ir_cell_87" opacity="0.05" width="2mm" x="24mm" y="14mm" /><rect fill="#000000" height="2mm" id="ir_cell_89" opacity="0.05" width="2mm" x="28mm" y="14mm" /><rect fill="#000000" height="2mm" id="ir_cell_93" opacity="0.05" width="2mm" x="36mm" y="14mm" /><rect fill="#000000" height="2mm" id="ir_cell_97" opacity="0.05" width="2mm" x="44mm" y="14mm" /><rect fill="#000000" height="2mm" id="ir_cell_100" opacity="0.05" width="2mm" x="50mm" y="14mm" /><rect fill="#000000" height="2mm" id="ir_cell_101" opacity="0.05" width="2mm" x="52mm" y="14mm" /><rect fill="#000000" height="2mm" id="ir_cell_102" opacity="0.05" width="2mm" x="54mm" y="14mm" /><rect fill="#000000" height="2mm" id="ir_cell_103" opacity="0.05" width="2mm" x="56mm" y="14mm" /><rect fill="#000000" height="2mm" id="ir_cell_105" opacity="0.05" width="2mm" x="60mm" y="14mm" /><rect fill="#000000" height="2mm" id="ir_cell_109" opacity="0.05" width="2mm" x="68mm" y="14mm" /><rect fill="#000000" height="2mm" id="ir_cell_111" opacity="0.05" width="2mm" x="72mm" y="14mm" /><rect fill="#000000" height="2mm" id="ir_cell_113" opacity="0.05" width="2mm" x="76mm" y="14mm" /><rect fill="#000000" height="2mm" id="ir_cell_114" opacity="0.05" width="2mm" x="78mm" y="14mm" /><rect fill="#000000" height="2mm" id="ir_cell_115" opacity="0.05" width="2mm" x="80mm" y="14mm" /><rect fill="#000000" height="2mm" id="ir_cell_116" opacity="0.05" width="2mm" x="82mm" y="14mm" /><rect fill="#000000" height="2mm" id="ir_cell_117" opacity="0.05" width="2mm" x="84mm" y="14mm" /><rect fill="#000000" height="2mm" id="ir_cell_121" opacity="0.05" width="2mm" x="12mm" y="16mm" /><rect fill="#000000" height="2mm" id="ir_cell_126" opacity="0.05" width="2mm" x="22mm" y="16mm" /><rect fill="#000000" height="2mm" id="ir_cell_130" opacity="0.05" width="2mm" x="30mm" y="16mm" /><rect fill="#000000" height="2mm" id="ir_cell_131" opacity="0.05" width="2mm" x="32mm" y="16mm" /><rect fill="#000000" height="2mm" id="ir_cell_132" opacity="0.05" width="2mm" x="34mm" y="16mm" /><rect fill="#000000" height="2mm" id="ir_cell_134" opacity="0.05" width="2mm" x="38mm" y="16mm" /><rect fill="#000000" height="2mm" id="ir_cell_137" opacity="0.05" width="2mm" x="44mm" y="16mm" /><rect fill="#000000" height="2mm" id="ir_cell_143" opacity="0.05" width="2mm" x="56mm" y="16mm" /><rect fill="#000000" height="2mm" id="ir_cell_145" opacity="0.05" width="2mm" x="60mm" y="16mm" /><rect fill="#000000" height="2mm" id="ir_cell_150" opacity="0.05" width="2mm" x="70mm" y="16mm" /><rect fill="#000000" height="2mm" id="ir_cell_151" opacity="0.05" width="2mm" x="72mm" y="16mm" /><rect fill="#000000" height="2mm" id="ir_cell_153" opacity="0.05" width="2mm" x="76mm" y="16mm" /><rect fill="#000000" height="2mm" id="ir_cell_158" opacity="0.05" width="2mm" x="86mm" y="16mm" /><rect fill="#000000" height="2mm" id="ir_cell_159" opacity="0.05" width="2mm" x="88mm" y="16mm" /><rect fill="#000000" height="2mm" id="ir_cell_161" opacity="0.05" width="2mm" x="12mm" y="18mm" /><rect fill="#000000" height="2mm" id="ir_cell_165" opacity="0.05" width="2mm" x="20mm" y="18mm" /><rect fill="#000000" height="2mm" id="ir_cell_167" opacity="0.05" width="2mm" x="24mm" y="18mm" /><rect fill="#000000" height="2mm" id="ir_cell_169" opacity="0.05" width="2mm" x="28mm" y="18mm" /><rect fill="#000000" height="2mm" id="ir_cell_171" opacity="0.05" width="2mm" x="32mm" y="18mm" /><rect fill="#000000" height="2mm" id="ir_cell_174" opacity="0.05" width="2mm" x="38mm" y="18mm" /><rect fill="#000000" height="2mm" id="ir_cell_175" opacity="0.05" width="2mm" x="40mm" y="18mm" /><rect fill="#000000" height="2mm" id="ir_cell_177" opacity="0.05" width="2mm" x="44mm" y="18mm" /><rect fill="#000000" height="2mm" id="ir_cell_179" opacity="0.05" width="2mm" x="48mm" y="18mm" /><rect fill="#000000" height="2mm" id="ir_cell_182" opacity="0.05" width="2mm" x="54mm" y="18mm" /><rect fill="#000000" height="2mm" id="ir_cell_183" opacity="0.05" width="2mm" x="56mm" y="18mm" /><rect fill="#000000" height="2mm" id="ir_cell_186" opacity="0.05" width="2mm" x="62mm" y="18mm" /><rect fill="#000000" height="2mm" id="ir_cell_188" opacity="0.05" width="2mm" x="66mm" y="18mm" /><rect fill="#000000" height="2mm" id="ir_cell_189" opacity="0.05" width="2mm" x="68mm" y="18mm" /><rect fill="#000000" height="2mm" id="ir_cell_191" opacity="0.05" width="2mm" x="72mm" y="18mm" /><rect fill="#000000" height="2mm" id="ir_cell_193" opacity="0.05" width="2mm" x="76mm" y="18mm" /><rect fill="#000000" height="2mm" id="ir_cell_198" opacity="0.05" width="2mm" x="86mm" y="18mm" /><rect fill="#000000" height="2mm" id="ir_cell_201" opacity="0.05" width="2mm" x="12mm" y="20mm" /><rect fill="#000000" height="2mm" id="ir_cell_203" opacity="0.05" width="2mm" x="16mm" y="20mm" /><rect fill="#000000" height="2mm" id="ir_cell_205" opacity="0.05" width="2mm" x="20mm" y="20mm" /><rect fill="#000000" height="2mm" id="ir_cell_207" opacity="0.05" width="2mm" x="24mm" y="20mm" /><rect fill="#000000" height="2mm" id="ir_cell_209" opacity="0.05" width="2mm" x="28mm" y="20mm" /><rect fill="#000000" height="2mm" id="ir_cell_212" opacity="0.05" width="2mm" x="34mm" y="20mm" /><rect fill="#000000" height="2mm" id="ir_cell_215" opacity="0.05" width="2mm" x="40mm" y="20mm" /><rect fill="#000000" height="2mm" id="ir_cell_217" opacity="0.05" width="2mm" x="44mm" y="20mm" /><rect fill="#000000" height="2mm" id="ir_cell_220" opacity="0.05" width="2mm" x="50mm" y="20mm" /><rect fill="#000000" height="2mm" id="ir_cell_221" opacity="0.05" width="2mm" x="52mm" y="20mm" /><rect fill="#000000" height="2mm" id="ir_cell_225" opacity="0.05" width="2mm" x="60mm" y="20mm" /><rect fill="#000000" height="2mm" id="ir_cell_229" opacity="0.05" width="2mm" x="68mm" y="20mm" /><rect fill="#000000" height="2mm" id="ir_cell_233" opacity="0.05" width="2mm" x="76mm" y="20mm" /><rect fill="#000000" height="2mm" id="ir_cell_236" opacity="0.05" width="2mm" x="82mm" y="20mm" /><rect fill="#000000" height="2mm" id="ir_cell_239" opacity="0.05" width="2mm" x="88mm" y="20mm" /><rect fill="#000000" height="2mm" id="ir_cell_241" opacity="0.05" width="2mm" x="12mm" y="22mm" /><rect fill="#000000" height="2mm" id="ir_cell_244" opacity="0.05" width="2mm" x="18mm" y="22mm" /><rect fill="#000000" height="2mm" id="ir_cell_245" opacity="0.05" width="2mm" x="20mm" y="22mm" /><rect fill="#000000" height="2mm" id="ir_cell_246" opacity="0.05" width="2mm" x="22mm" y="22mm" /><rect fill="#000000" height="2mm" id="ir_cell_249" opacity="0.05" width="2mm" x="28mm" y="22mm" /><rect fill="#000000" height="2mm" id="ir_cell_253" opacity="0.05" width="2mm" x="36mm" y="22mm" /><rect fill="#000000" height="2mm" id="ir_cell_254" opacity="0.05" width="2mm" x="38mm" y="22mm" /><rect fill="#000000" height="2mm" id="ir_cell_255" opacity="0.05" width="2mm" x="40mm" y="22mm" /><rect fill="#000000" height="2mm" id="ir_cell_258" opacity="0.05" width="2mm" x="46mm" y="22mm" /><rect fill="#000000" height="2mm" id="ir_cell_260" opacity="0.05" width="2mm" x="50mm" y="22mm" /><rect fill="#000000" height="2mm" id="ir_cell_261" opacity="0.05" width="2mm" x="52mm" y="22mm" /><rect fill="#000000" height="2mm" id="ir_cell_263" opacity="0.05" width="2mm" x="56mm" y="22mm" /><rect fill="#000000" height="2mm" id="ir_cell_265" opacity="0.05" width="2mm" x="60mm" y="22mm" /><rect fill="#000000" height="2mm" id="ir_cell_271" opacity="0.05" width="2mm" x="72mm" y="22mm" /><rect fill="#000000" height="2mm" id="ir_cell_274" opacity="0.05" width="2mm" x="78mm" y="22mm" /><rect fill="#000000" height="2mm" id="ir_cell_276" opacity="0.05" width="2mm" x="82mm" y="22mm" /><rect fill="#000000" height="2mm" id="ir_cell_277" opacity="0.05" width="2mm" x="84mm" y="22mm" /><rect fill="#000000" height="2mm" id="ir_cell_279" opacity="0.05" width="2mm" x="88mm" y="22mm" /><rect fill="#000000" height="2mm" id="ir_cell_281" opacity="0.05" width="2mm" x="12mm" y="24mm" /><rect fill="#000000" height="2mm" id="ir_cell_284" opacity="0.05" width="2mm" x="18mm" y="24mm" /><rect fill="#000000" height="2mm" id="ir_cell_285" opacity="0.05" width="2mm" x="20mm" y="24mm" /><rect fill="#000000" height="2mm" id="ir_cell_289" opacity="0.05" width="2mm" x="28mm" y="24mm" /><rect fill="#000000" height="2mm" id="ir_cell_295" opacity="0.05" width="2mm" x="40mm" y="24mm" /><rect fill="#000000" height="2mm" id="ir_cell_297" opacity="0.05" width="2mm" x="44mm" y="24mm" /><rect fill="#000000" height="2mm" id="ir_cell_302" opacity="0.05" width="2mm" x="54mm" y="24mm" /><rect fill="#000000" height="2mm" id="ir_cell_306" opacity="0.05" width="2mm" x="62mm" y="24mm" /><rect fill="#000000" height="2mm" id="ir_cell_308" opacity="0.05" width="2mm" x="66mm" y="24mm" /><rect fill="#000000" height="2mm" id="ir_cell_309" opacity="0.05" width="2mm" x="68mm" y="24mm" /><rect fill="#000000" height="2mm" id="ir_cell_311" opacity="0.05" width="2mm" x="72mm" y="24mm" /><rect fill="#000000" height="2mm" id="ir_cell_314" opacity="0.05" width="2mm" x="78mm" y="24mm" /><rect fill="#000000" height="2mm" id="ir_cell_315" opacity="0.05" width="2mm" x="80mm" y="24mm" /><rect fill="#000000" height="2mm" id="ir_cell_318" opacity="0.05" width="2mm" x="86mm" y="24mm" /><rect fill="#000000" height="2mm" id="ir_cell_319" opacity="0.05" width="2mm" x="88mm" y="24mm" /><rect fill="#000000" height="2mm" id="ir_cell_321" opacity="0.05" width="2mm" x="12mm" y="26mm" /><rect fill="#000000" height="2mm" id="ir_cell_322" opacity="0.05" width="2mm" x="14mm" y="26mm" /><rect fill="#000000" height="2mm" id="ir_cell_323" opacity="0.05" width="2mm" x="16mm" y="26mm" /><rect fill="#000000" height="2mm" id="ir_cell_324" opacity="0.05" width="2mm" x="18mm" y="26mm" /><rect fill="#000000" height="2mm" id="ir_cell_325" opacity="0.05" width="2mm" x="20mm" y="26mm" /><rect fill="#000000" height="2mm" id="ir_cell_329" opacity="0.05" width="2mm" x="28mm" y="26mm" /><rect fill="#000000" height="2mm" id="ir_cell_334" opacity="0.05" width="2mm" x="38mm" y="26mm" /><rect fill="#000000" height="2mm" id="ir_cell_335" opacity="0.05" width="2mm" x="40mm" y="26mm" /><rect fill="#000000" height="2mm" id="ir_cell_338" opacity="0.05" width="2mm" x="46mm" y="26mm" /><rect fill="#000000" height="2mm" id="ir_cell_339" opacity="0.05" width="2mm" x="48mm" y="26mm" /><rect fill="#000000" height="2mm" id="ir_cell_340" opacity="0.05" width="2mm" x="50mm" y="26mm" /><rect fill="#000000" height="2mm" id="ir_cell_342" opacity="0.05" width="2mm" x="54mm" y="26mm" /><rect fill="#000000" height="2mm" id="ir_cell_345" opacity="0.05" width="2mm" x="60mm" y="26mm" /><rect fill="#000000" height="2mm" id="ir_cell_347" opacity="0.05" width="2mm" x="64mm" y="26mm" /><rect fill="#000000" height="2mm" id="ir_cell_349" opacity="0.05" width="2mm" x="68mm" y="26mm" /><rect fill="#000000" height="2mm" id="ir_cell_350" opacity="0.05" width="2mm" x="70mm" y="26mm" /><rect fill="#000000" height="2mm" id="ir_cell_353" opacity="0.05" width="2mm" x="76mm" y="26mm" /><rect fill="#000000" height="2mm" id="ir_cell_359" opacity="0.05" width="2mm" x="88mm" y="26mm" /><rect fill="#000000" height="2mm" id="ir_cell_361" opacity="0.05" width="2mm" x="12mm" y="28mm" /><rect fill="#000000" height="2mm" id="ir_cell_364" opacity="0.05" width="2mm" x="18mm" y="28mm" /><rect fill="#000000" height="2mm" id="ir_cell_365" opacity="0.05" width="2mm" x="20mm" y="28mm" /><rect fill="#000000" height="2mm" id="ir_cell_369" opacity="0.05" width="2mm" x="28mm" y="28mm" /><rect fill="#000000" height="2mm" id="ir_cell_372" opacity="0.05" width="2mm" x="34mm" y="28mm" /><rect fill="#000000" height="2mm" id="ir_cell_375" opacity="0.05" width="2mm" x="40mm" y="28mm" /><rect fill="#000000" height="2mm" id="ir_cell_377" opacity="0.05" width="2mm" x="44mm" y="28mm" /><rect fill="#000000" height="2mm" id="ir_cell_381" opacity="0.05" width="2mm" x="52mm" y="28mm" /><rect fill="#000000" height="2mm" id="ir_cell_386" opacity="0.05" width="2mm" x="62mm" y="28mm" /><rect fill="#000000" height="2mm" id="ir_cell_388" opacity="0.05" width="2mm" x="66mm" y="28mm" /><rect fill="#000000" height="2mm" id="ir_cell_389" opacity="0.05" width="2mm" x="68mm" y="28mm" /><rect fill="#000000" height="2mm" id="ir_cell_391" opacity="0.05" width="2mm" x="72mm" y="28mm" /><rect fill="#000000" height="2mm" id="ir_cell_394" opacity="0.05" width="2mm" x="78mm" y="28mm" /><rect fill="#000000" height="2mm" id="ir_cell_395" opacity="0.05" width="2mm" x="80mm" y="28mm" /><rect fill="#000000" height="2mm" id="ir_cell_398" opacity="0.05" width="2mm" x="86mm" y="28mm" /><rect fill="#000000" height="2mm" id="ir_cell_402" opacity="0.05" width="2mm" x="14mm" y="30mm" /><rect fill="#000000" height="2mm" id="ir_cell_403" opacity="0.05" width="2mm" x="16mm" y="30mm" /><rect fill="#000000" height="2mm" id="ir_cell_410" opacity="0.05" width="2mm" x="30mm" y="30mm" /><rect fill="#000000" height="2mm" id="ir_cell_411" opacity="0.05" width="2mm" x="32mm" y="30mm" /><rect fill="#000000" height="2mm" id="ir_cell_414" opacity="0.05" width="2mm" x="38mm" y="30mm" /><rect fill="#000000" height="2mm" id="ir_cell_418" opacity="0.05" width="2mm" x="46mm" y="30mm" /><rect fill="#000000" height="2mm" id="ir_cell_419" opacity="0.05" width="2mm" x="48mm" y="30mm" /><rect fill="#000000" height="2mm" id="ir_cell_421" opacity="0.05" width="2mm" x="52mm" y="30mm" /><rect fill="#000000" height="2mm" id="ir_cell_423" opacity="0.05" width="2mm" x="56mm" y="30mm" /><rect fill="#000000" height="2mm" id="ir_cell_426" opacity="0.05" width="2mm" x="62mm" y="30mm" /><rect fill="#000000" height="2mm" id="ir_cell_428" opacity="0.05" width="2mm" x="66mm" y="30mm" /><rect fill="#000000" height="2mm" id="ir_cell_429" opacity="0.05" width="2mm" x="68mm" y="30mm" /><rect fill="#000000" height="2mm" id="ir_cell_431" opacity="0.05" width="2mm" x="72mm" y="30mm" /><rect fill="#000000" height="2mm" id="ir_cell_434" opacity="0.05" width="2mm" x="78mm" y="30mm" /><rect fill="#000000" height="2mm" id="ir_cell_435" opacity="0.05" width="2mm" x="80mm" y="30mm" /><rect fill="#000000" height="2mm" id="ir_cell_439" opacity="0.05" width="2mm" x="88mm" y="30mm" /><rect fill="#000000" height="2mm" id="ir_cell_442" opacity="0.05" width="2mm" x="14mm" y="32mm" /><rect fill="#000000" height="2mm" id="ir_cell_443" opacity="0.05" width="2mm" x="16mm" y="32mm" /><rect fill="#000000" height="2mm" id="ir_cell_446" opacity="0.05" width="2mm" x="22mm" y="32mm" /><rect fill="#000000" height="2mm" id="ir_cell_450" opacity="0.05" width="2mm" x="30mm" y="32mm" /><rect fill="#000000" height="2mm" id="ir_cell_452" opacity="0.05" width="2mm" x="34mm" y="32mm" /><rect fill="#000000" height="2mm" id="ir_cell_453" opacity="0.05" width="2mm" x="36mm" y="32mm" /><rect fill="#000000" height="2mm" id="ir_cell_455" opacity="0.05" width="2mm" x="40mm" y="32mm" /><rect fill="#000000" height="2mm" id="ir_cell_458" opacity="0.05" width="2mm" x="46mm" y="32mm" /><rect fill="#000000" height="2mm" id="ir_cell_459" opacity="0.05" width="2mm" x="48mm" y="32mm" /><rect fill="#000000" height="2mm" id="ir_cell_462" opacity="0.05" width="2mm" x="54mm" y="32mm" /><rect fill="#000000" height="2mm" id="ir_cell_463" opacity="0.05" width="2mm" x="56mm" y="32mm" /><rect fill="#000000" height="2mm" id="ir_cell_466" opacity="0.05" width="2mm" x="62mm" y="32mm" /><rect fill="#000000" height="2mm" id="ir_cell_467" opacity="0.05" width="2mm" x="64mm" y="32mm" /><rect fill="#000000" height="2mm" id="ir_cell_471" opacity="0.05" width="2mm" x="72mm" y="32mm" /><text fill="#999999" font-size="3pt" opacity="0.3" x="5mm" y="98mm">IR: 472 bits</text></svg>