<?xml version="1.0" encoding="utf-8" ?>
<svg baseProfile="full" height="100mm" version="1.1" width="100mm" xmlns="http://www.w3.org/2000/svg" xmlns:ev="http://www.w3.org/2001/xml-events" xmlns:xlink="http://www.w3.org/1999/xlink"><defs /><circle cx="50mm" cy="50mm" fill="#0066CC" r="35mm" stroke="#003366" stroke-width="2mm" /><circle cx="50mm" cy="25mm" fill="#FFFFFF" r="5mm" /><circle cx="50mm" cy="75mm" fill="#FFFFFF" r="5mm" /><line stroke="#FFFFFF" stroke-width="3mm" x1="50mm" x2="50mm" y1="30mm" y2="70mm" /><text fill="#FFFFFF" font-family="monospace" font-size="8pt" font-weight="bold" text-anchor="middle" x="50mm" y="55mm">GX-V-001</text><text fill="#003366" font-family="sans-serif" font-size="6pt" opacity="0.5" text-anchor="middle" x="50mm" y="90mm">SCIC</text><rect fill="#000000" height="2mm" id="ir_cell_1" opacity="0.05" width="2mm" x="12mm" y="10mm" /><rect fill="#000000" height="2mm" id="ir_cell_7" opacity="0.05" width="2mm" x="24mm" y="10mm" /><rect fill="#000000" height="2mm" id="ir_cell_10" opacity="0.05" width="2mm" x="30mm" y="10mm" /><rect fill="#000000" height="2mm" id="ir_cell_11" opacity="0.05" width="2mm" x="32mm" y="10mm" /><rect fill="#000000" height="2mm" id="ir_cell_12" opacity="0.05" width="2mm" x="34mm" y="10mm" /><rect fill="#000000" height="2mm" id="ir_cell_14" opacity="0.05" width="2mm" x="38mm" y="10mm" /><rect fill="#000000" height="2mm" id="ir_cell_17" opacity="0.05" width="2mm" x="44mm" y="10mm" /><rect fill="#000000" height="2mm" id="ir_cell_19" opacity="0.05" width="2mm" x="48mm" y="10mm" /><rect fill="#000000" height="2mm" id="ir_cell_21" opacity="0.05" width="2mm" x="52mm" y="10mm" /><rect fill="#000000" height="2mm" id="ir_cell_22" opacity="0.05" width="2mm" x="54mm" y="10mm" /><rect fill="#000000" height="2mm" id="ir_cell_25" opacity="0.05" width="2mm" x="60mm" y="10mm" /><rect fill="#000000" height="2mm" id="ir_cell_28" opacity="0.05" width="2mm" x="66mm" y="10mm" /><rect fill="#000000" height="2mm" id="ir_cell_31" opacity="0.05" width="2mm" x="72mm" y="10mm" /><rect fill="#000000" height="2mm" id="ir_cell_33" opacity="0.05" width="2mm" x="76mm" y="10mm" /><rect fill="#000000" height="2mm" id="ir_cell_36" opacity="0.05" width="2mm" x="82mm" y="10mm" /><rect fill="#000000" height="2mm" id="ir_cell_37" opacity="0.05" width="2mm" x="84mm" y="10mm" /><rect fill="#000000" height="2mm" id="ir_cell_38" opacity="0.05" width="2mm" x="86mm" y="10mm" /><rect fill="#000000" height="2mm" id="ir_cell_42" opacity="0.05" width="2mm" x="14mm" y="12mm" /><rect fill="#000000" height="2mm" id="ir_cell_44" opacity="0.05" width="2mm" x="18mm" y="12mm" /><rect fill="#000000" height="2mm" id="ir_cell_45" opacity="0.05" width="2mm" x="20mm" y="12mm" /><rect fill="#000000" height="2mm" id="ir_cell_47" opacity="0.05" width="2mm" x="24mm" y="12mm" /><rect fill="#000000" height="2mm" id="ir_cell_49" opacity="0.05" width="2mm" x="28mm" y="12mm" /><rect fill="#000000" height="2mm" id="ir_cell_55" opacity="0.05" width="2mm" x="40mm" y="12mm" /><rect fill="#000000" height="2mm" id="ir_cell_57" opacity="0.05" width="2mm" x="44mm" y="12mm" /><rect fill="#000000" height="2mm" id="ir_cell_62" opacity="0.05" width="2mm" x="54mm" y="12mm" /><rect fill="#000000" height="2mm" id="ir_cell_65" opacity="0.05" width="2mm" x="60mm" y="12mm" /><rect fill="#000000" height="2mm" id="ir_cell_70" opacity="0.05" width="2mm" x="70mm" y="12mm" /><rect fill="#000000" height="2mm" id="ir_cell_71" opacity="0.05" width="2mm" x="72mm" y="12mm" /><rect fill="#000000" height="2mm" id="ir_cell_74" opacity="0.05" width="2mm" x="78mm" y="12mm" /><rect fill="#000000" height="2mm" id="ir_cell_75" opacity="0.05" width="2mm" x="80mm" y="12mm" /><rect fill="#000000" height="2mm" id="ir_cell_79" opacity="0.05" width="2mm" x="88mm" y="12mm" /><rect fill="#000000" height="2mm" id="ir_cell_82" opacity="0.05" width="2mm" x="14mm" y="14mm" /><rect fill="#000000" height="2mm" id="ir_cell_83" opacity="0.05" width="2mm" x="16mm" y="14mm" /><rect fill="#000000" height="2mm" id="ir_cell_86" opacity="0.05" width="2mm" x="22mm" y="14mm" /><rect fill="#000000" height="2mm" id="ir_cell_90" opacity="0.05" width="2mm" x="30mm" y="14mm" /><rect fill="#000000" height="2mm" id="ir_cell_91" opacity="0.05" width="2mm" x="32mm" y="14mm" /><rect fill="#000000" height="2mm" id="ir_cell_94" opacity="0.05" width="2mm" x="38mm" y="14mm" /><rect fill="#000000" height="2mm" id="ir_cell_95" opacity="0.05" width="2mm" x="40mm" y="14mm" /><rect fill="#000000" height="2mm" id="ir_cell_97" opacity="0.05" width="2mm" x="44mm" y="14mm" /><rect fill="#000000" height="2mm" id="ir_cell_99" opacity="0.05" width="2mm" x="48mm" y="14mm" /><rect fill="#000000" height="2mm" id="ir_cell_100" opacity="0.05" width="2mm" x="50mm" y="14mm" /><rect fill="#000000" height="2mm" id="ir_cell_105" opacity="0.05" width="2mm" x="60mm" y="14mm" /><rect fill="#000000" height="2mm" id="ir_cell_107" opacity="0.05" width="2mm" x="64mm" y="14mm" /><rect fill="#000000" height="2mm" id="ir_cell_108" opacity="0.05" width="2mm" x="66mm" y="14mm" /><rect fill="#000000" height="2mm" id="ir_cell_111" opacity="0.05" width="2mm" x="72mm" y="14mm" /><rect fill="#000000" height="2mm" id="ir_cell_113" opacity="0.05" width="2mm" x="76mm" y="14mm" /><rect fill="#000000" height="2mm" id="ir_cell_115" opacity="0.05" width="2mm" x="80mm" y="14mm" /><rect fill="#000000" height="2mm" id="ir_cell_116" opacity="0.05" width="2mm" x="82mm" y="14mm" /><rect fill="#000000" height="2mm" id="ir_cell_118" opacity="0.05" width="2mm" x="86mm" y="14mm" /><rect fill="#000000" height="2mm" id="ir_cell_121" opacity="0.05" width="2mm" x="12mm" y="16mm" /><rect fill="#000000" height="2mm" id="ir_cell_122" opacity="0.05" width="2mm" x="14mm" y="16mm" /><rect fill="#000000" height="2mm" id="ir_cell_123" opacity="0.05" width="2mm" x="16mm" y="16mm" /><rect fill="#000000" height="2mm" id="ir_cell_124" opacity="0.05" width="2mm" x="18mm" y="16mm" /><rect fill="#000000" height="2mm" id="ir_cell_125" opacity="0.05" width="2mm" x="20mm" y="16mm" /><rect fill="#000000" height="2mm" id="ir_cell_129" opacity="0.05" width="2mm" x="28mm" y="16mm" /><rect fill="#000000" height="2mm" id="ir_cell_134" opacity="0.05" width="2mm" x="38mm" y="16mm" /><rect fill="#000000" height="2mm" id="ir_cell_138" opacity="0.05" width="2mm" x="46mm" y="16mm" /><rect fill="#000000" height="2mm" id="ir_cell_139" opacity="0.05" width="2mm" x="48mm" y="16mm" /><rect fill="#000000" height="2mm" id="ir_cell_140" opacity="0.05" width="2mm" x="50mm" y="16mm" /><rect fill="#000000" height="2mm" id="ir_cell_142" opacity="0.05" width="2mm" x="54mm" y="16mm" /><rect fill="#000000" height="2mm" id="ir_cell_145" opacity="0.05" width="2mm" x="60mm" y="16mm" /><rect fill="#000000" height="2mm" id="ir_cell_148" opacity="0.05" width="2mm" x="66mm" y="16mm" /><rect fill="#000000" height="2mm" id="ir_cell_149" opacity="0.05" width="2mm" x="68mm" y="16mm" /><rect fill="#000000" height="2mm" id="ir_cell_151" opacity="0.05" width="2mm" x="72mm" y="16mm" /><rect fill="#000000" height="2mm" id="ir_cell_153" opacity="0.05" width="2mm" x="76mm" y="16mm" /><rect fill="#000000" height="2mm" id="ir_cell_159" opacity="0.05" width="2mm" x="88mm" y="16mm" /><rect fill="#000000" height="2mm" id="ir_cell_161" opacity="0.05" width="2mm" x="12mm" y="18mm" /><rect fill="#000000" height="2mm" id="ir_cell_164" opacity="0.05" width="2mm" x="18mm" y="18mm" /><rect fill="#000000" height="2mm" id="ir_cell_167" opacity="0.05" width="2mm" x="24mm" y="18mm" /><rect fill="#000000" height="2mm" id="ir_cell_169" opacity="0.05" width="2mm" x="28mm" y="18mm" /><rect fill="#000000" height="2mm" id="ir_cell_172" opacity="0.05" width="2mm" x="34mm" y="18mm" /><rect fill="#000000" height="2mm" id="ir_cell_173" opacity="0.05" width="2mm" x="36mm" y="18mm" /><rect fill="#000000" height="2mm" id="ir_cell_174" opacity="0.05" width="2mm" x="38mm" y="18mm" /><rect fill="#000000" height="2mm" id="ir_cell_177" opacity="0.05" width="2mm" x="44mm" y="18mm" /><rect fill="#000000" height="2mm" id="ir_cell_179" opacity="0.05" width="2mm" x="48mm" y="18mm" /><rect fill="#000000" height="2mm" id="ir_cell_181" opacity="0.05" width="2mm" x="52mm" y="18mm" /><rect fill="#000000" height="2mm" id="ir_cell_186" opacity="0.05" width="2mm" x="62mm" y="18mm" /><rect fill="#000000" height="2mm" id="ir_cell_188" opacity="0.05" width="2mm" x="66mm" y="18mm" /><rect fill="#000000" height="2mm" id="ir_cell_189" opacity="0.05" width="2mm" x="68mm" y="18mm" /><rect fill="#000000" height="2mm" id="ir_cell_191" opacity="0.05" width="2mm" x="72mm" y="18mm" /><rect fill="#000000" height="2mm" id="ir_cell_193" opacity="0.05" width="2mm" x="76mm" y="18mm" /><rect fill="#000000" height="2mm" id="ir_cell_196" opacity="0.05" width="2mm" x="82mm" y="18mm" /><rect fill="#000000" height="2mm" id="ir_cell_197" opacity="0.05" width="2mm" x="84mm" y="18mm" /><rect fill="#000000" height="2mm" id="ir_cell_198" opacity="0.05" width="2mm" x="86mm" y="18mm" /><rect fill="#000000" height="2mm" id="ir_cell_199" opacity="0.05" width="2mm" x="88mm" y="18mm" /><rect fill="#000000" height="2mm" id="ir_cell_201" opacity="0.05" width="2mm" x="12mm" y="20mm" /><rect fill="#000000" height="2mm" id="ir_cell_204" opacity="0.05" width="2mm" x="18mm" y="20mm" /><rect fill="#000000" height="2mm" id="ir_cell_206" opacity="0.05" width="2mm" x="22mm" y="20mm" /><rect fill="#000000" height="2mm" id="ir_cell_207" opacity="0.05" width="2mm" x="24mm" y="20mm" /><rect fill="#000000" height="2mm" id="ir_cell_209" opacity="0.05" width="2mm" x="28mm" y="20mm" /><rect fill="#000000" height="2mm" id="ir_cell_210" opacity="0.05" width="2mm" x="30mm" y="20mm" /><rect fill="#000000" height="2mm" id="ir_cell_211" opacity="0.05" width="2mm" x="32mm" y="20mm" /><rect fill="#000000" height="2mm" id="ir_cell_212" opacity="0.05" width="2mm" x="34mm" y="20mm" /><rect fill="#000000" height="2mm" id="ir_cell_213" opacity="0.05" width="2mm" x="36mm" y="20mm" /><rect fill="#000000" height="2mm" id="ir_cell_217" opacity="0.05" width="2mm" x="44mm" y="20mm" /><rect fill="#000000" height="2mm" id="ir_cell_222" opacity="0.05" width="2mm" x="54mm" y="20mm" /><rect fill="#000000" height="2mm" id="ir_cell_223" opacity="0.05" width="2mm" x="56mm" y="20mm" /><rect fill="#000000" height="2mm" id="ir_cell_226" opacity="0.05" width="2mm" x="62mm" y="20mm" /><rect fill="#000000" height="2mm" id="ir_cell_227" opacity="0.05" width="2mm" x="64mm" y="20mm" /><rect fill="#000000" height="2mm" id="ir_cell_228" opacity="0.05" width="2mm" x="66mm" y="20mm" /><rect fill="#000000" height="2mm" id="ir_cell_230" opacity="0.05" width="2mm" x="70mm" y="20mm" /><rect fill="#000000" height="2mm" id="ir_cell_233" opacity="0.05" width="2mm" x="76mm" y="20mm" /><rect fill="#000000" height="2mm" id="ir_cell_236" opacity="0.05" width="2mm" x="82mm" y="20mm" /><rect fill="#000000" height="2mm" id="ir_cell_237" opacity="0.05" width="2mm" x="84mm" y="20mm" /><rect fill="#000000" height="2mm" id="ir_cell_238" opacity="0.05" width="2mm" x="86mm" y="20mm" /><rect fill="#000000" height="2mm" id="ir_cell_239" opacity="0.05" width="2mm" x="88mm" y="20mm" /><rect fill="#000000" height="2mm" id="ir_cell_241" opacity="0.05" width="2mm" x="12mm" y="22mm" /><rect fill="#000000" height="2mm" id="ir_cell_243" opacity="0.05" width="2mm" x="16mm" y="22mm" /><rect fill="#000000" height="2mm" id="ir_cell_245" opacity="0.05" width="2mm" x="20mm" y="22mm" /><rect fill="#000000" height="2mm" id="ir_cell_246" opacity="0.05" width="2mm" x="22mm" y="22mm" /><rect fill="#000000" height="2mm" id="ir_cell_247" opacity="0.05" width="2mm" x="24mm" y="22mm" /><rect fill="#000000" height="2mm" id="ir_cell_249" opacity="0.05" width="2mm" x="28mm" y="22mm" /><rect fill="#000000" height="2mm" id="ir_cell_252" opacity="0.05" width="2mm" x="34mm" y="22mm" /><rect fill="#000000" height="2mm" id="ir_cell_253" opacity="0.05" width="2mm" x="36mm" y="22mm" /><rect fill="#000000" height="2mm" id="ir_cell_254" opacity="0.05" width="2mm" x="38mm" y="22mm" /><rect fill="#000000" height="2mm" id="ir_cell_257" opacity="0.05" width="2mm" x="44mm" y="22mm" /><rect fill="#000000" height="2mm" id="ir_cell_261" opacity="0.05" width="2mm" x="52mm" y="22mm" /><rect fill="#000000" height="2mm" id="ir_cell_263" opacity="0.05" width="2mm" x="56mm" y="22mm" /><rect fill="#000000" height="2mm" id="ir_cell_265" opacity="0.05" width="2mm" x="60mm" y="22mm" /><rect fill="#000000" height="2mm" id="ir_cell_267" opacity="0.05" width="2mm" x="64mm" y="22mm" /><rect fill="#000000" height="2mm" id="ir_cell_270" opacity="0.05" width="2mm" x="70mm" y="22mm" /><rect fill="#000000" height="2mm" id="ir_cell_274" opacity="0.05" width="2mm" x="78mm" y="22mm" /><rect fill="#000000" height="2mm" id="ir_cell_276" opacity="0.05" width="2mm" x="82mm" y="22mm" /><rect fill="#000000" height="2mm" id="ir_cell_277" opacity="0.05" width="2mm" x="84mm" y="22mm" /><rect fill="#000000" height="2mm" id="ir_cell_279" opacity="0.05" width="2mm" x="88mm" y="22mm" /><rect fill="#000000" height="2mm" id="ir_cell_281" opacity="0.05" width="2mm" x="12mm" y="24mm" /><rect fill="#000000" height="2mm" id="ir_cell_283" opacity="0.05" width="2mm" x="16mm" y="24mm" /><rect fill="#000000" height="2mm" id="ir_cell_285" opacity="0.05" width="2mm" x="20mm" y="24mm" /><rect fill="#000000" height="2mm" id="ir_cell_286" opacity="0.05" width="2mm" x="22mm" y="24mm" /><rect fill="#000000" height="2mm" id="ir_cell_289" opacity="0.05" width="2mm" x="28mm" y="24mm" /><rect fill="#000000" height="2mm" id="ir_cell_293" opacity="0.05" width="2mm" x="36mm" y="24mm" /><rect fill="#000000" height="2mm" id="ir_cell_295" opacity="0.05" width="2mm" x="40mm" y="24mm" /><rect fill="#000000" height="2mm" id="ir_cell_297" opacity="0.05" width="2mm" x="44mm" y="24mm" /><rect fill="#000000" height="2mm" id="ir_cell_299" opacity="0.05" width="2mm" x="48mm" y="24mm" /><rect fill="#000000" height="2mm" id="ir_cell_302" opacity="0.05" width="2mm" x="54mm" y="24mm" /><rect fill="#000000" height="2mm" id="ir_cell_305" opacity="0.05" width="2mm" x="60mm" y="24mm" /><rect fill="#000000" height="2mm" id="ir_cell_308" opacity="0.05" width="2mm" x="66mm" y="24mm" /><rect fill="#000000" height="2mm" id="ir_cell_311" opacity="0.05" width="2mm" x="72mm" y="24mm" /><rect fill="#000000" height="2mm" id="ir_cell_313" opacity="0.05" width="2mm" x="76mm" y="24mm" /><rect fill="#000000" height="2mm" id="ir_cell_317" opacity="0.05" width="2mm" x="84mm" y="24mm" /><rect fill="#000000" height="2mm" id="ir_cell_318" opacity="0.05" width="2mm" x="86mm" y="24mm" /><rect fill="#000000" height="2mm" id="ir_cell_321" opacity="0.05" width="2mm" x="12mm" y="26mm" /><rect fill="#000000" height="2mm" id="ir_cell_324" opacity="0.05" width="2mm" x="18mm" y="26mm" /><rect fill="#000000" height="2mm" id="ir_cell_327" opacity="0.05" width="2mm" x="24mm" y="26mm" /><rect fill="#000000" height="2mm" id="ir_cell_329" opacity="0.05" width="2mm" x="28mm" y="26mm" /><rect fill="#000000" height="2mm" id="ir_cell_333" opacity="0.05" width="2mm" x="36mm" y="26mm" /><rect fill="#000000" height="2mm" id="ir_cell_335" opacity="0.05" width="2mm" x="40mm" y="26mm" /><rect fill="#000000" height="2mm" id="ir_cell_337" opacity="0.05" width="2mm" x="44mm" y="26mm" /><rect fill="#000000" height="2mm" id="ir_cell_341" opacity="0.05" width="2mm" x="52mm" y="26mm" /><text fill="#999999" font-size="3pt" opacity="0.3" x="5mm" y="98mm">IR: 344 bits</text></svg>